<svg id="visual" viewBox="0 0 900 600" width="900" height="600" xmlns="http://www.w3.org/2000/svg" xmlns:xlink="http://www.w3.org/1999/xlink" version="1.1"><path d="M0 514L18.8 521C37.7 528 75.3 542 112.8 539.8C150.3 537.7 187.7 519.3 225.2 507.5C262.7 495.7 300.3 490.3 337.8 489C375.3 487.7 412.7 490.3 450.2 507.7C487.7 525 525.3 557 562.8 564C600.3 571 637.7 553 675.2 547.8C712.7 542.7 750.3 550.3 787.8 543.7C825.3 537 862.7 516 881.3 505.5L900 495L900 601L881.3 601C862.7 601 825.3 601 787.8 601C750.3 601 712.7 601 675.2 601C637.7 601 600.3 601 562.8 601C525.3 601 487.7 601 450.2 601C412.7 601 375.3 601 337.8 601C300.3 601 262.7 601 225.2 601C187.7 601 150.3 601 112.8 601C75.3 601 37.7 601 18.8 601L0 601Z" fill="#fff10a" stroke-linecap="round" stroke-linejoin="miter"></path></svg>